<?xml version="1.0" standalone="no"?>
<!DOCTYPE svg PUBLIC "-//W3C//DTD SVG 20010904//EN"
 "http://www.w3.org/TR/2001/REC-SVG-20010904/DTD/svg10.dtd">
<svg version="1.0" xmlns="http://www.w3.org/2000/svg"
 width="480.000000pt" height="450.000000pt" viewBox="0 0 480.000000 450.000000"
 preserveAspectRatio="xMidYMid meet">

<g transform="translate(0.000000,450.000000) scale(0.100000,-0.100000)"
fill="#000000" stroke="none">
<path d="M2895 4400 c-127 -16 -234 -59 -337 -137 -37 -28 -75 -54 -85 -57
-10 -3 -108 -19 -218 -36 -310 -47 -465 -95 -628 -192 -173 -103 -315 -267
-385 -445 -40 -103 -104 -346 -136 -523 -55 -301 -59 -579 -11 -805 39 -180
40 -192 16 -269 -67 -217 19 -419 205 -480 61 -20 85 -45 152 -156 100 -169
233 -328 366 -440 275 -231 579 -344 961 -357 312 -11 579 45 823 172 259 135
479 348 642 621 69 115 93 140 154 160 203 64 294 263 221 480 -31 93 -31 101
2 317 l27 179 -17 166 c-33 333 -117 662 -228 882 -131 262 -267 400 -594 606
-379 239 -690 344 -930 314z m241 -101 c196 -34 455 -161 784 -383 312 -210
489 -501 580 -955 100 -497 67 -886 -89 -1062 l-39 -44 -7 100 c-3 55 -10 158
-14 228 -9 165 -10 166 -180 207 -294 72 -510 190 -708 387 -51 51 -102 97
-113 103 -45 24 -89 -35 -97 -131 -7 -74 10 -137 54 -201 19 -27 32 -52 29
-55 -11 -11 -95 9 -155 37 -82 39 -163 121 -189 192 -11 29 -22 82 -26 118 -9
80 -26 110 -65 110 -36 0 -103 -70 -134 -138 -27 -61 -33 -191 -14 -289 8 -40
10 -73 5 -73 -4 0 -28 9 -53 21 -61 29 -119 90 -150 157 -63 139 -81 167 -107
170 -24 3 -66 -34 -106 -94 -11 -17 -12 -16 -8 11 16 88 18 185 6 200 -22 27
-75 19 -110 -17 -50 -52 -124 -169 -149 -237 -13 -33 -29 -61 -36 -61 -28 0
-33 268 -8 441 14 96 15 124 5 157 -12 40 -13 41 -45 30 -48 -16 -85 -55 -123
-133 -54 -110 -67 -192 -61 -382 l5 -163 -38 6 c-59 10 -72 -17 -69 -152 1
-60 -3 -110 -8 -111 -5 -2 -29 68 -53 154 -36 132 -52 171 -86 221 -1 2 -17
-6 -36 -17 -32 -19 -38 -31 -76 -153 -51 -163 -62 -247 -62 -498 l-1 -195 -30
35 c-77 89 -146 261 -174 430 -30 190 -17 482 36 760 92 481 173 653 379 809
203 153 456 237 781 260 136 9 157 16 234 80 65 54 150 98 221 115 71 17 218
20 300 5z m-277 -1565 c71 -187 226 -305 459 -350 109 -21 184 -19 216 7 14
11 26 25 26 31 0 5 -44 56 -99 112 -84 87 -99 107 -106 144 -4 24 -5 46 -2 48
3 3 40 -27 84 -66 192 -176 405 -284 735 -375 70 -19 79 -32 89 -145 11 -117
-3 -232 -41 -326 -41 -103 -38 -116 25 -130 58 -12 59 -15 18 -129 -68 -188
-179 -352 -355 -521 -213 -205 -478 -344 -765 -401 -135 -26 -425 -24 -559 5
-146 32 -243 65 -379 133 -319 157 -568 417 -711 742 -40 92 -41 105 -12 109
44 6 49 42 28 189 -25 166 -27 398 -5 525 24 137 24 138 54 53 29 -80 69 -153
134 -237 42 -55 70 -75 123 -86 29 -7 30 -5 43 43 l13 51 39 -23 c25 -14 38
-27 35 -37 -2 -8 -14 -42 -27 -75 -56 -150 -8 -360 100 -432 54 -36 111 -32
161 13 59 54 84 125 84 249 1 90 -2 107 -28 163 -33 72 -88 126 -144 141 -21
6 -46 19 -55 28 -8 10 -34 79 -56 153 -23 74 -44 143 -47 153 -3 9 -1 17 4 17
5 0 17 -27 26 -60 20 -69 54 -102 82 -79 25 20 41 58 79 189 58 194 69 210 77
103 4 -54 14 -86 47 -152 49 -96 80 -131 116 -131 39 0 48 35 35 148 -6 52 -9
97 -7 99 2 2 17 -13 33 -34 45 -61 135 -152 170 -174 44 -27 171 -69 209 -69
62 0 69 35 29 150 -35 102 -39 290 -5 290 4 0 18 -25 30 -56z m1716 -844 c8
-16 15 -51 15 -78 0 -132 -79 -252 -184 -278 -26 -6 -28 -5 -21 12 4 10 21 66
37 124 35 125 56 174 92 218 34 39 41 40 61 2z m-3341 -43 c35 -51 86 -186
101 -269 6 -33 5 -38 -11 -38 -76 0 -164 139 -164 258 0 36 19 102 29 102 5 0
25 -24 45 -53z"/>
<path d="M3606 2097 c-63 -65 -86 -124 -93 -238 -10 -150 44 -273 131 -303
102 -35 204 68 240 244 12 60 11 71 -10 149 -42 152 -84 201 -172 201 -42 0
-50 -4 -96 -53z"/>
<path d="M2856 1491 c-3 -4 2 -27 11 -50 16 -40 15 -42 -5 -64 -31 -33 -28
-49 9 -45 24 2 36 12 56 45 l24 42 -37 40 c-37 42 -49 48 -58 32z"/>
<path d="M94 2093 c4 -21 9 -46 12 -55 3 -10 312 -280 687 -600 375 -319 701
-599 725 -622 36 -34 42 -46 42 -81 0 -34 6 -47 38 -77 48 -46 72 -58 117 -58
28 0 51 -11 98 -47 91 -69 253 -237 322 -333 93 -130 108 -144 155 -137 55 7
97 40 111 87 10 33 9 44 -9 82 -33 67 -80 111 -325 302 -221 173 -228 179
-222 207 8 33 -8 59 -34 59 -10 0 -25 16 -34 36 -19 39 -17 38 -113 19 -37 -8
35 -66 -619 500 -949 821 -869 755 -916 755 l-41 0 6 -37z"/>
</g>
</svg>
