<?xml version="1.0" standalone="no"?>
<!DOCTYPE svg PUBLIC "-//W3C//DTD SVG 20010904//EN"
 "http://www.w3.org/TR/2001/REC-SVG-20010904/DTD/svg10.dtd">
<svg version="1.0" xmlns="http://www.w3.org/2000/svg"
 width="551.000000pt" height="462.000000pt" viewBox="0 0 551.000000 462.000000"
 preserveAspectRatio="xMidYMid meet">

<g transform="translate(0.000000,462.000000) scale(0.100000,-0.100000)"
fill="#000000" stroke="none">
<path d="M3260 4524 c-91 -8 -248 -37 -345 -64 -55 -15 -113 -30 -128 -34 -15
-4 -164 -11 -330 -16 -238 -7 -325 -13 -409 -30 -337 -66 -585 -214 -766 -458
-151 -204 -230 -439 -252 -753 -10 -141 -27 -224 -57 -284 -9 -16 -62 -75
-118 -130 -80 -78 -109 -114 -133 -165 -41 -89 -56 -163 -50 -256 8 -119 36
-187 134 -321 16 -22 13 -27 -61 -150 -43 -71 -79 -130 -81 -132 -6 -7 -49 27
-242 193 -253 217 -256 220 -287 212 -30 -8 -49 -40 -41 -72 4 -14 129 -130
337 -311 183 -158 343 -298 358 -310 l26 -21 -20 -25 c-11 -14 -51 -63 -88
-109 -230 -281 -191 -492 119 -653 88 -45 128 -88 154 -166 22 -65 16 -84 -41
-127 -24 -19 -48 -45 -54 -59 -14 -37 26 -67 107 -82 112 -20 280 -30 353 -21
97 12 141 30 234 94 92 62 173 92 285 102 141 13 164 -1 303 -178 89 -113 106
-128 145 -128 33 0 103 53 118 90 20 49 -2 87 -156 277 l-26 32 30 30 c37 38
69 102 78 159 7 48 13 50 89 27 133 -41 277 -59 465 -59 196 0 284 11 451 58
98 27 99 27 165 -44 64 -68 143 -119 231 -147 64 -20 94 -23 228 -23 183 0
213 -8 333 -87 171 -112 287 -147 487 -147 149 0 226 14 400 71 87 28 115 46
115 75 0 33 -34 54 -96 61 -88 9 -136 29 -161 67 -50 73 -16 167 101 273 100
90 202 219 222 280 45 136 -17 258 -190 373 -31 20 -56 40 -55 43 0 3 34 33
76 66 76 61 161 154 188 204 68 132 28 240 -157 422 l-98 96 34 44 c68 90 103
195 92 277 -9 63 -47 142 -90 185 -39 40 -162 132 -290 218 -44 30 -93 70
-108 89 -19 25 -55 117 -114 290 -124 370 -223 565 -376 741 -218 249 -537
399 -883 412 -60 3 -130 3 -155 1z m383 -137 c54 -14 140 -46 192 -71 372
-176 588 -481 774 -1091 24 -77 54 -159 68 -182 35 -61 102 -117 246 -206 190
-118 244 -188 235 -306 -5 -70 -27 -117 -95 -200 -76 -95 -74 -107 47 -193
110 -79 183 -149 205 -194 20 -44 19 -107 -4 -152 -23 -45 -118 -136 -226
-219 -44 -33 -89 -70 -99 -82 -19 -21 -19 -21 5 -47 13 -14 65 -50 115 -80
105 -62 158 -115 174 -175 26 -95 -9 -158 -180 -328 -70 -69 -136 -142 -146
-161 -13 -25 -19 -56 -19 -110 0 -85 13 -117 76 -185 46 -49 47 -48 -71 -66
-103 -15 -286 -7 -360 16 -84 26 -193 83 -255 134 -115 94 -114 93 -175 87
-30 -4 -104 -9 -165 -12 -92 -5 -120 -2 -171 14 -68 21 -254 137 -254 157 0 7
43 36 97 65 297 159 516 373 669 653 48 87 78 117 121 117 33 0 117 47 156 86
20 20 50 63 65 93 24 51 27 66 27 167 0 105 -1 113 -34 177 -22 43 -50 80 -79
104 l-44 36 5 56 c3 31 15 99 27 151 27 121 38 362 21 481 -14 95 -66 259
-109 346 -16 32 -49 112 -72 178 -110 315 -332 527 -670 639 -297 98 -573 109
-1100 42 -151 -19 -324 -45 -385 -56 -409 -80 -689 -268 -820 -554 -19 -41
-50 -133 -69 -203 -19 -70 -53 -189 -75 -263 -59 -195 -74 -284 -69 -415 4
-92 9 -120 33 -175 51 -119 44 -206 -26 -286 -22 -25 -52 -69 -67 -97 -25 -48
-27 -62 -27 -162 0 -105 2 -114 33 -177 49 -100 125 -159 234 -182 20 -5 35
-23 68 -83 162 -301 381 -521 668 -672 111 -58 120 -70 108 -137 -8 -42 -92
-134 -122 -134 -25 1 -41 10 -162 99 -85 62 -100 77 -100 100 1 33 -77 139
-109 147 -11 3 -30 1 -41 -5 -47 -25 -66 -14 -248 146 -98 86 -289 251 -424
366 -135 116 -253 224 -263 241 -11 19 -15 41 -12 55 10 38 80 153 133 217 27
33 51 67 55 76 4 12 -13 40 -55 90 -34 40 -75 102 -92 138 -28 59 -31 74 -31
166 0 96 2 103 38 177 38 78 70 115 146 176 100 79 147 195 161 399 29 408
118 638 334 860 92 95 177 155 298 211 178 83 337 109 738 120 279 8 287 9
395 40 198 57 299 71 490 67 143 -3 186 -8 268 -29z m-93 -345 c286 -68 522
-211 656 -397 58 -83 120 -213 144 -308 11 -43 33 -106 49 -140 70 -148 93
-259 93 -447 0 -124 -19 -314 -38 -369 -3 -8 -33 22 -77 80 -39 51 -98 125
-130 163 -69 83 -371 406 -395 422 -9 7 -34 15 -54 18 -36 6 -37 6 -47 -29 -6
-21 -7 -89 -4 -162 5 -104 4 -125 -7 -118 -8 5 -54 39 -103 77 -101 77 -132
85 -172 42 -24 -26 -34 -49 -55 -131 -12 -48 -16 -49 -66 -28 -56 23 -121 75
-151 119 -46 70 -75 96 -104 96 -45 0 -77 -53 -134 -218 -7 -21 -101 34 -160
93 -60 60 -112 156 -190 355 -63 160 -87 193 -132 181 -35 -9 -65 -53 -92
-133 -18 -54 -21 -86 -21 -250 0 -103 -3 -188 -6 -188 -3 0 -34 14 -68 32 -43
23 -94 66 -172 145 -126 128 -141 134 -195 81 -30 -31 -139 -238 -139 -265 0
-25 -18 -12 -62 45 -53 67 -91 91 -116 76 -9 -6 -35 -42 -56 -80 -106 -188
-158 -273 -180 -293 l-25 -23 -8 38 c-4 22 -8 89 -7 149 1 123 4 137 115 525
87 305 111 351 239 481 86 86 106 101 210 152 238 116 543 186 945 217 77 5
156 12 175 14 19 2 130 3 245 1 167 -3 227 -7 295 -23z m-900 -1213 c53 -77
132 -146 215 -185 136 -66 166 -57 184 54 6 37 14 79 17 95 l6 27 39 -47 c52
-64 112 -110 187 -145 72 -35 174 -49 188 -27 4 8 15 56 24 107 l15 94 105
-91 c58 -50 123 -100 145 -111 l40 -20 17 33 c13 25 17 58 18 150 0 64 4 117
9 117 15 0 260 -260 344 -365 44 -55 106 -138 136 -185 55 -84 56 -86 60 -168
4 -107 -21 -258 -65 -392 -225 -678 -915 -1118 -1609 -1026 -676 89 -1192 579
-1310 1243 -8 49 -18 144 -22 213 -8 167 7 227 81 324 30 39 76 107 101 151
26 44 48 81 49 82 1 1 35 -22 75 -52 79 -60 112 -68 135 -32 7 12 35 77 61
144 25 68 51 125 56 129 5 3 49 -32 98 -78 113 -106 285 -208 351 -208 35 0
40 31 40 262 0 123 3 233 6 246 6 19 21 -4 86 -129 44 -84 97 -179 118 -210z
m1955 -807 c46 -137 -15 -306 -131 -362 -25 -12 -46 -21 -48 -19 -3 4 78 386
98 464 l8 30 29 -34 c15 -19 35 -55 44 -79z m-3287 -102 c57 -258 57 -260 40
-260 -25 0 -81 43 -110 85 -36 51 -62 153 -53 208 8 51 64 172 75 160 4 -4 26
-91 48 -193z m-82 -856 l334 -287 0 -40 c0 -35 7 -47 54 -94 47 -47 57 -52 83
-47 18 3 41 0 55 -8 35 -19 127 -92 128 -100 0 -5 -26 -8 -57 -8 -32 -1 -87
-7 -122 -15 -59 -12 -70 -19 -116 -69 -33 -36 -73 -65 -111 -83 -56 -26 -67
-28 -236 -31 l-177 -4 6 94 c10 167 -41 254 -198 339 -206 110 -261 224 -183
376 23 44 189 259 202 262 2 1 154 -128 338 -285z"/>
<path d="M2055 2278 c-11 -6 -36 -28 -56 -49 -43 -46 -72 -49 -149 -20 -27 11
-50 16 -50 13 0 -4 30 -37 68 -75 l67 -68 -40 6 c-22 4 -57 11 -78 15 -21 5
-37 4 -35 0 2 -5 30 -32 63 -60 52 -44 69 -68 125 -178 49 -96 73 -133 99
-149 58 -39 122 -25 175 38 42 49 58 97 63 190 7 103 -18 199 -67 267 -52 73
-129 101 -185 70z"/>
<path d="M3685 2254 c-49 -25 -81 -62 -111 -127 -26 -56 -29 -73 -29 -172 0
-95 3 -117 24 -163 44 -98 123 -141 195 -107 46 22 69 54 121 174 38 87 48
100 95 133 63 44 106 85 98 94 -6 5 -57 -3 -146 -22 -17 -3 -3 14 47 62 39 36
68 70 66 75 -3 4 -26 -1 -51 -11 -64 -28 -88 -25 -131 13 -81 72 -118 82 -178
51z"/>
<path d="M2900 1593 c0 -4 5 -21 11 -38 10 -28 9 -36 -11 -62 -18 -25 -20 -34
-11 -52 7 -11 13 -21 15 -21 2 0 22 24 45 54 46 61 45 76 -4 106 -34 21 -45
24 -45 13z"/>
</g>
</svg>
