<?xml version="1.0" standalone="no"?>
<!DOCTYPE svg PUBLIC "-//W3C//DTD SVG 20010904//EN"
 "http://www.w3.org/TR/2001/REC-SVG-20010904/DTD/svg10.dtd">
<svg version="1.0" xmlns="http://www.w3.org/2000/svg"
 width="401.000000pt" height="389.000000pt" viewBox="0 0 401.000000 389.000000"
 preserveAspectRatio="xMidYMid meet">

<g transform="translate(0.000000,389.000000) scale(0.100000,-0.100000)"
fill="current" stroke="none">
<path d="M245 3788 c-32 -17 -76 -61 -91 -90 -16 -32 -18 -115 -3 -155 5 -16
357 -376 797 -816 l787 -787 -792 -793 c-443 -442 -797 -804 -802 -820 -14
-37 -14 -123 0 -150 17 -32 60 -77 91 -93 36 -19 121 -18 161 2 18 9 386 370
819 802 l788 787 787 -787 c440 -440 800 -792 816 -797 40 -15 123 -13 155 3
31 16 74 61 91 93 14 27 14 113 0 150 -5 16 -357 376 -797 816 l-787 787 787
788 c440 439 792 799 797 815 15 40 13 123 -3 155 -16 31 -61 74 -93 91 -27
14 -113 14 -150 0 -16 -5 -376 -357 -815 -797 l-788 -787 -788 787 c-439 440
-799 792 -815 797 -37 14 -126 13 -152 -1z"/>
</g>
</svg>
