<?xml version="1.0" standalone="no"?>
<!DOCTYPE svg PUBLIC "-//W3C//DTD SVG 20010904//EN"
 "http://www.w3.org/TR/2001/REC-SVG-20010904/DTD/svg10.dtd">
<svg version="1.0" xmlns="http://www.w3.org/2000/svg"
 width="557.000000pt" height="439.000000pt" viewBox="0 0 557.000000 439.000000"
 preserveAspectRatio="xMidYMid meet">

<g transform="translate(0.000000,439.000000) scale(0.100000,-0.100000)"
fill="#000000" stroke="none">
<path d="M2690 4244 c-94 -25 -161 -64 -230 -133 -104 -105 -150 -214 -150
-356 0 -196 103 -358 284 -445 48 -23 93 -51 101 -63 13 -19 15 -208 15 -1539
0 -1365 2 -1518 16 -1532 14 -14 76 -16 534 -16 458 0 520 2 534 16 23 23 23
245 0 268 -13 14 -65 16 -410 16 -428 0 -438 1 -462 55 -18 40 -17 457 2 494
25 47 47 51 311 51 287 0 275 -4 275 100 0 104 12 100 -275 100 -168 0 -252 4
-270 12 -57 26 -55 -14 -55 1010 0 841 2 946 16 966 8 12 50 39 92 59 259 122
365 431 236 685 -36 71 -132 169 -203 207 -109 58 -248 75 -361 45z m223 -204
c73 -27 130 -79 164 -148 23 -47 28 -70 28 -132 -1 -165 -112 -284 -277 -297
-128 -10 -251 70 -297 190 -89 240 143 476 382 387z"/>
<path d="M152 3648 c-7 -7 -12 -24 -12 -39 0 -21 15 -39 71 -84 104 -85 239
-172 365 -237 134 -69 157 -104 120 -177 -21 -40 -56 -51 -164 -51 -107 0
-122 -7 -122 -51 0 -23 16 -41 88 -100 223 -185 506 -338 966 -523 49 -20 100
-45 112 -57 47 -44 38 -126 -17 -154 -19 -10 -60 -15 -128 -15 -105 0 -131
-10 -131 -50 0 -28 33 -55 124 -99 197 -96 411 -132 869 -147 l217 -6 0 305 0
304 -41 7 c-179 29 -382 178 -511 374 -120 185 -214 464 -234 696 -4 39 -13
81 -20 94 l-14 22 -763 0 c-580 0 -766 -3 -775 -12z"/>
<path d="M3916 3638 c-7 -13 -17 -57 -20 -98 -20 -231 -124 -530 -248 -713
-123 -181 -327 -326 -497 -353 l-41 -7 0 -305 0 -305 218 7 c456 15 672 51
868 147 91 44 124 71 124 99 0 40 -26 50 -131 50 -68 0 -109 5 -128 15 -55 28
-64 110 -17 154 12 12 63 37 112 57 460 185 743 338 967 523 71 59 87 77 87
100 0 44 -15 51 -122 51 -108 0 -143 11 -164 51 -37 73 -14 108 120 177 126
65 261 152 365 237 58 47 71 62 71 86 0 18 -7 32 -19 39 -13 7 -274 10 -775
10 l-756 0 -14 -22z"/>
</g>
</svg>
