<?xml version="1.0" standalone="no"?>
<!DOCTYPE svg PUBLIC "-//W3C//DTD SVG 20010904//EN"
 "http://www.w3.org/TR/2001/REC-SVG-20010904/DTD/svg10.dtd">
<svg version="1.0" xmlns="http://www.w3.org/2000/svg"
 width="624.000000pt" height="369.000000pt" viewBox="0 0 624.000000 369.000000"
 preserveAspectRatio="xMidYMid meet">

<g transform="translate(0.000000,369.000000) scale(0.100000,-0.100000)"
fill="current" stroke="none">
<path d="M417 3519 c-133 -31 -254 -153 -292 -293 -61 -225 89 -461 323 -506
34 -7 62 -17 62 -22 0 -10 337 -1889 344 -1920 3 -11 -8 -24 -30 -37 -68 -41
-74 -62 -74 -286 0 -223 5 -244 72 -285 33 -20 55 -20 2288 -20 2233 0 2255 0
2288 20 67 41 72 62 72 285 0 224 -6 245 -74 286 -22 13 -33 26 -30 37 7 29
344 1911 344 1921 0 4 28 14 63 21 132 25 241 112 300 238 28 60 32 77 32 157
0 152 -58 265 -176 344 -84 56 -152 74 -254 69 -264 -14 -444 -271 -367 -525
12 -38 35 -88 52 -111 l30 -42 -747 -765 c-410 -421 -747 -764 -749 -762 -1 1
-131 326 -289 721 l-285 718 63 58 c198 182 177 492 -44 639 -84 56 -152 74
-253 69 -174 -10 -315 -119 -366 -285 -49 -160 -6 -311 121 -427 l60 -53 -286
-719 c-158 -395 -288 -720 -289 -722 -2 -1 -339 342 -749 763 l-746 765 29 44
c42 61 60 118 67 202 15 184 -111 366 -291 419 -54 16 -159 18 -219 4z m3040
-2469 c62 -107 113 -197 113 -200 0 -3 -51 -93 -113 -200 l-112 -195 -232 -3
-233 -2 -23 37 c-13 21 -65 111 -117 200 l-93 163 93 162 c52 90 104 180 117
201 l23 37 233 -2 232 -3 112 -195z"/>
</g>
</svg>
