<?xml version="1.0" standalone="no"?>
<!DOCTYPE svg PUBLIC "-//W3C//DTD SVG 20010904//EN"
 "http://www.w3.org/TR/2001/REC-SVG-20010904/DTD/svg10.dtd">
<svg version="1.0" xmlns="http://www.w3.org/2000/svg"
 width="618.000000pt" height="504.000000pt" viewBox="0 0 618.000000 504.000000"
 preserveAspectRatio="xMidYMid meet">

<g transform="translate(0.000000,504.000000) scale(0.100000,-0.100000)"
fill="current" stroke="none">
<path d="M1841 4866 c-28 -16 -50 -52 -51 -85 0 -13 75 -192 166 -398 92 -205
165 -375 163 -377 -2 -2 -123 12 -269 31 -145 19 -275 31 -288 28 -39 -10 -72
-50 -72 -88 0 -22 69 -186 206 -488 113 -250 208 -460 211 -467 7 -17 56 -42
82 -42 52 0 101 48 101 100 0 12 -74 186 -165 387 -91 201 -165 369 -165 375
0 5 8 7 18 4 9 -3 131 -19 270 -36 212 -26 259 -30 283 -19 32 12 59 54 59 88
0 12 -95 235 -211 496 -182 410 -216 478 -240 490 -34 18 -66 18 -98 1z"/>
<path d="M1580 2575 c-8 -2 -49 -9 -90 -15 -333 -54 -650 -298 -795 -614 -42
-89 -84 -231 -92 -308 l-6 -58 -114 0 c-126 0 -161 -11 -181 -55 -16 -34 -15
-60 2 -94 22 -42 55 -51 180 -51 l113 0 6 -57 c10 -92 54 -230 106 -333 l48
-95 -328 -330 c-214 -216 -330 -340 -334 -357 -19 -77 46 -142 122 -123 18 4
139 117 348 325 l320 318 60 -55 c133 -122 299 -211 483 -260 82 -22 120 -26
247 -27 166 -1 242 10 375 56 313 109 558 349 671 659 38 103 57 195 67 326 7
78 15 114 36 157 35 72 119 148 194 176 50 19 63 21 105 11 97 -22 184 -93
232 -189 21 -41 29 -78 36 -155 11 -126 23 -189 56 -292 104 -323 358 -580
683 -693 133 -46 209 -57 375 -56 127 1 165 5 247 27 183 48 327 125 471 250
l74 65 309 -310 c170 -170 321 -316 336 -324 44 -23 77 -17 114 20 37 37 43
70 20 114 -8 15 -158 170 -334 345 l-319 319 48 96 c53 106 96 245 106 335 l6
57 113 0 c125 0 158 9 180 51 27 52 8 115 -41 137 -15 7 -73 12 -140 12 l-115
0 0 34 c0 49 -43 211 -79 297 -46 111 -143 254 -235 345 -465 465 -1226 421
-1637 -94 -80 -99 -135 -200 -183 -336 -6 -16 -12 -13 -56 28 -98 91 -246 140
-362 118 -82 -15 -192 -70 -245 -123 -38 -36 -44 -39 -49 -23 -81 229 -207
401 -394 541 -114 85 -275 157 -424 189 -65 14 -301 28 -336 19z m-416 -1127
c23 -23 35 -47 40 -77 20 -126 140 -279 266 -338 68 -33 148 -53 205 -53 47 0
84 -19 101 -51 18 -35 18 -63 -1 -98 -21 -41 -63 -55 -143 -48 -286 27 -516
208 -606 479 -40 118 -34 172 22 202 45 25 80 20 116 -16z m2800 0 c23 -23 35
-47 40 -77 20 -126 140 -279 266 -338 68 -33 148 -53 205 -53 47 0 84 -19 101
-51 18 -35 18 -63 -1 -98 -21 -41 -63 -55 -143 -48 -286 27 -516 208 -606 479
-40 118 -34 172 22 202 45 25 80 20 116 -16z"/>
</g>
</svg>
