<?xml version="1.0" standalone="no"?>
<!DOCTYPE svg PUBLIC "-//W3C//DTD SVG 20010904//EN"
 "http://www.w3.org/TR/2001/REC-SVG-20010904/DTD/svg10.dtd">
<svg version="1.0" xmlns="http://www.w3.org/2000/svg"
 width="518.000000pt" height="555.000000pt" viewBox="0 0 518.000000 555.000000"
 preserveAspectRatio="xMidYMid meet">

<g transform="translate(0.000000,555.000000) scale(0.100000,-0.100000)"
fill="#000000" stroke="none">
<path d="M115 5430 c-21 -23 -25 -14 69 -185 392 -712 655 -1533 701 -2187 l7
-96 510 -471 c358 -330 517 -471 533 -471 45 0 49 18 42 208 -21 547 -112
1109 -247 1510 -199 593 -510 1018 -1000 1366 -200 142 -540 346 -577 346 -11
0 -28 -9 -38 -20z"/>
<path d="M4840 5354 c-343 -200 -546 -350 -750 -554 -295 -294 -498 -634 -645
-1075 -132 -400 -222 -959 -242 -1497 -7 -190 -3 -208 42 -208 16 0 175 141
532 471 l511 470 6 102 c36 518 228 1198 515 1815 61 131 103 214 250 484 25
46 25 47 7 67 -11 12 -29 21 -40 21 -12 0 -95 -43 -186 -96z"/>
<path d="M2440 1705 c-173 -35 -349 -135 -445 -252 l-27 -33 622 0 622 0 -27
33 c-167 200 -480 306 -745 252z"/>
<path d="M1839 1193 c-15 -41 -39 -134 -39 -155 0 -17 38 -18 791 -18 l791 0
-6 45 c-4 25 -15 69 -25 98 l-18 52 -742 3 -741 2 -11 -27z"/>
<path d="M1804 775 c4 -25 15 -69 25 -98 l18 -52 743 0 743 0 18 52 c10 29 21
73 25 98 l6 45 -792 0 -792 0 6 -45z"/>
<path d="M1995 388 c133 -159 375 -268 595 -268 220 0 461 108 594 267 l28 33
-622 0 -622 0 27 -32z"/>
</g>
</svg>
