<?xml version="1.0" standalone="no"?>
<!DOCTYPE svg PUBLIC "-//W3C//DTD SVG 20010904//EN"
 "http://www.w3.org/TR/2001/REC-SVG-20010904/DTD/svg10.dtd">
<svg version="1.0" xmlns="http://www.w3.org/2000/svg"
 width="472.000000pt" height="559.000000pt" viewBox="0 0 472.000000 559.000000"
 preserveAspectRatio="xMidYMid meet">

<g transform="translate(0.000000,559.000000) scale(0.100000,-0.100000)"
fill="current" stroke="none">
<path d="M1970 5459 c-794 -18 -1429 -83 -1700 -174 -41 -14 -81 -29 -88 -34
-28 -17 -65 -1152 -65 -2006 0 -779 24 -1270 73 -1459 58 -227 181 -420 424
-661 280 -278 662 -540 1162 -796 217 -112 510 -247 554 -255 29 -6 207 70
475 201 756 371 1320 807 1568 1213 53 88 103 204 126 295 22 85 46 334 62
637 26 502 4 2116 -37 2737 l-6 92 -56 22 c-348 130 -1436 213 -2492 188z
m730 -279 c489 -14 775 -33 1070 -71 233 -29 417 -69 495 -106 l32 -15 12
-297 c25 -609 31 -901 31 -1469 0 -545 -5 -836 -16 -890 -4 -22 -5 -22 -31 -5
-30 20 -156 23 -378 9 -125 -8 -200 2 -287 38 l-38 16 54 83 c68 104 99 166
132 264 23 65 27 97 28 193 1 110 3 118 36 185 32 65 78 119 143 171 29 24 28
23 52 178 19 129 48 226 81 275 13 20 29 62 35 92 10 52 9 59 -14 106 -56 109
-139 95 -314 -54 -66 -56 -114 -128 -150 -221 -20 -54 -25 -88 -27 -172 -3
-99 -5 -111 -49 -217 -96 -232 -208 -415 -246 -402 -5 2 -40 51 -78 109 -75
114 -166 218 -216 249 -18 10 -57 22 -87 26 -72 8 -160 33 -160 45 0 4 26 21
58 37 43 21 75 29 132 31 l76 4 11 94 c7 58 20 110 33 136 l21 41 -97 -7 c-54
-4 -117 -12 -141 -17 -38 -10 -47 -9 -87 15 -96 56 -102 120 -20 207 l34 35
68 -22 c72 -24 96 -49 108 -112 6 -30 9 -33 33 -26 14 4 37 7 51 8 21 1 32 14
66 81 22 44 57 106 78 138 51 79 76 135 76 173 0 28 -6 34 -62 62 -80 39 -160
62 -213 62 -35 0 -44 4 -53 24 -22 48 -87 109 -147 138 -33 15 -67 28 -75 28
-8 0 -53 28 -100 61 -148 106 -248 155 -187 91 l27 -28 -108 27 c-157 40 -293
54 -364 40 -84 -18 -91 -34 -20 -54 61 -17 122 -53 130 -76 4 -11 0 -12 -14
-6 -11 4 -67 10 -127 13 -120 5 -183 -7 -216 -42 l-21 -23 55 5 c30 2 55 1 55
-4 0 -5 -47 -31 -105 -58 -120 -56 -250 -137 -266 -168 -10 -19 -9 -20 20 -13
51 11 54 -3 10 -53 -22 -26 -45 -55 -51 -65 -9 -17 -7 -18 21 -12 19 4 31 3
31 -4 0 -5 -24 -42 -54 -81 -59 -78 -106 -167 -106 -199 0 -20 1 -20 36 4 20
14 49 25 65 25 l28 0 -16 -37 c-31 -76 -66 -139 -100 -180 -29 -36 -31 -43
-16 -43 10 0 29 7 42 16 23 16 23 16 16 -7 -29 -94 -136 -224 -218 -263 l-51
-24 39 -11 c22 -6 49 -11 61 -11 28 0 102 -55 116 -86 9 -19 17 -24 32 -20 12
3 47 11 78 17 70 14 83 7 92 -53 19 -119 88 -263 131 -274 17 -4 30 -25 55
-92 40 -107 93 -205 124 -229 18 -15 26 -36 36 -93 7 -41 22 -102 34 -135 19
-53 21 -79 20 -235 -1 -169 -13 -290 -35 -358 -6 -18 -42 -69 -79 -114 -188
-221 -296 -407 -339 -583 l-18 -70 -42 1 c-58 1 -89 27 -134 112 -81 153 -95
292 -56 552 21 137 24 189 23 440 -1 258 -3 292 -22 362 -55 202 -179 362
-357 463 -27 16 -69 46 -93 68 -136 122 -305 127 -418 11 l-51 -52 -7 106 c-7
118 8 1058 24 1437 5 132 13 313 16 402 l7 162 50 21 c194 84 768 149 1502
169 390 11 395 11 755 1z m-1813 -2460 c125 -82 206 -200 239 -348 14 -63 16
-106 11 -248 -8 -211 -33 -522 -53 -669 -26 -188 -28 -273 -10 -344 9 -35 15
-65 13 -67 -7 -7 -176 135 -276 231 -229 222 -363 434 -407 645 -10 52 -44
406 -44 466 0 8 19 -1 50 -24 27 -20 63 -43 81 -49 l31 -12 -6 37 c-4 20 -9
73 -12 117 -7 107 11 146 74 157 59 10 156 64 195 109 17 20 37 38 42 38 6 1
38 -17 72 -39z m2810 -702 l152 -3 138 -72 c88 -45 160 -75 196 -82 64 -12 77
-17 77 -33 0 -21 -88 -197 -130 -259 -202 -300 -586 -610 -1121 -907 l-57 -31
-6 47 c-7 55 -88 219 -152 308 -38 54 -44 70 -44 111 1 60 34 161 80 238 21
36 85 108 163 185 213 207 327 368 327 461 0 46 8 49 135 43 50 -2 158 -5 242
-6z"/>
</g>
</svg>
