<?xml version="1.0" standalone="no"?>
<!DOCTYPE svg PUBLIC "-//W3C//DTD SVG 20010904//EN"
 "http://www.w3.org/TR/2001/REC-SVG-20010904/DTD/svg10.dtd">
<svg version="1.0" xmlns="http://www.w3.org/2000/svg"
 width="526.000000pt" height="369.000000pt" viewBox="0 0 526.000000 369.000000"
 preserveAspectRatio="xMidYMid meet">

<g transform="translate(0.000000,369.000000) scale(0.100000,-0.100000)"
fill="#000000" stroke="none">
<path d="M1535 3518 c-80 -29 -125 -92 -125 -178 0 -88 45 -150 129 -178 49
-17 3433 -17 3482 0 84 28 129 90 129 178 0 67 -29 123 -82 157 l-42 28 -1730
2 c-1208 1 -1740 -2 -1761 -9z"/>
<path d="M217 2015 c-130 -46 -166 -208 -68 -306 20 -20 54 -42 76 -48 29 -8
533 -11 1750 -11 1632 0 1712 1 1750 19 52 23 102 81 111 126 17 92 -20 170
-100 210 l-50 25 -1715 0 c-1427 -1 -1722 -3 -1754 -15z"/>
<path d="M1324 505 c-72 -36 -99 -81 -99 -165 0 -84 27 -129 99 -165 l50 -25
1710 0 c1218 0 1722 3 1751 11 53 15 110 73 125 128 27 101 -30 203 -128 231
-25 6 -602 10 -1748 10 l-1710 0 -50 -25z"/>
</g>
</svg>
