<?xml version="1.0" standalone="no"?>
<!DOCTYPE svg PUBLIC "-//W3C//DTD SVG 20010904//EN"
 "http://www.w3.org/TR/2001/REC-SVG-20010904/DTD/svg10.dtd">
<svg version="1.0" xmlns="http://www.w3.org/2000/svg"
 width="860.000000pt" height="859.000000pt" viewBox="0 0 860.000000 859.000000"
 preserveAspectRatio="xMidYMid meet">

<g transform="translate(0.000000,859.000000) scale(0.100000,-0.100000)"
fill="#CDB750" stroke="none">
<path d="M1517 7675 c-242 -216 -446 -400 -455 -409 -15 -14 -10 -26 50 -143
213 -411 379 -979 445 -1531 25 -205 25 -778 0 -1002 -68 -608 -210 -1057
-472 -1489 l-87 -143 37 -92 c93 -228 291 -576 471 -830 l88 -123 86 23 c47
13 110 26 141 30 l56 6 69 -63 c38 -34 123 -106 190 -159 313 -250 587 -410
976 -569 390 -159 788 -380 1144 -636 l52 -37 118 84 c325 232 724 450 1084
593 249 99 466 212 685 358 168 112 256 181 507 396 37 32 41 33 94 26 30 -3
93 -17 139 -30 l85 -23 88 124 c194 276 421 682 483 864 l22 65 -61 97 c-136
214 -260 484 -336 728 -188 605 -235 1368 -126 2038 76 468 252 1011 435 1341
25 46 45 84 43 85 -5 4 -860 766 -890 793 l-26 25 -109 -61 c-193 -108 -437
-206 -658 -264 l-120 -31 -546 -5 -547 -6 -47 -65 c-63 -85 -175 -196 -254
-249 l-62 -42 -46 27 c-62 36 -213 182 -276 267 l-50 67 -506 0 c-552 0 -578
2 -786 60 -184 52 -449 166 -623 269 -29 17 -56 31 -60 30 -4 0 -204 -177
-445 -394z m592 211 c218 -111 433 -191 636 -239 83 -19 128 -21 616 -26 l526
-6 48 -60 c72 -91 113 -132 194 -197 72 -57 157 -108 183 -108 26 0 173 103
241 168 38 37 94 97 124 135 l54 67 488 0 c533 0 565 3 774 60 146 41 311 106
495 197 l153 76 22 -20 c107 -95 783 -697 785 -699 2 -1 -24 -55 -56 -120
-114 -228 -228 -547 -307 -859 -107 -425 -153 -835 -142 -1265 22 -809 182
-1415 514 -1952 l54 -87 -37 -88 c-48 -117 -138 -292 -219 -428 -77 -128 -249
-388 -268 -403 -8 -7 -29 -6 -67 5 -30 8 -96 16 -146 16 l-91 2 -66 -62 c-328
-306 -717 -551 -1147 -723 -319 -127 -653 -305 -972 -516 -103 -68 -190 -124
-192 -124 -3 0 -61 38 -130 85 -301 206 -715 429 -1021 550 -409 162 -757 377
-1102 678 -121 106 -129 111 -179 115 -44 4 -184 -17 -227 -34 -16 -6 -129
151 -253 353 -123 199 -284 523 -284 571 0 8 25 55 57 105 284 460 446 1019
494 1701 15 214 7 683 -15 866 -64 532 -217 1073 -421 1488 l-61 123 400 359
c221 198 405 359 410 360 5 0 66 -29 135 -64z"/>
<path d="M1650 7589 c-179 -160 -345 -309 -369 -330 l-44 -39 61 -128 c209
-435 366 -1024 417 -1562 24 -246 16 -768 -14 -1025 -38 -310 -99 -591 -186
-845 -81 -235 -148 -380 -272 -592 l-74 -126 27 -64 c70 -169 217 -429 371
-661 73 -110 89 -128 107 -123 65 18 157 28 212 23 63 -5 65 -6 147 -79 355
-321 715 -547 1132 -713 339 -135 685 -320 1010 -539 66 -45 123 -82 126 -84
3 -1 73 42 155 96 308 205 664 395 989 526 423 171 766 384 1098 680 59 53
119 101 133 106 36 14 128 12 208 -5 38 -8 72 -12 77 -9 16 9 197 290 274 424
77 133 170 320 195 391 12 34 11 38 -47 135 -334 552 -502 1244 -503 2065 0
514 80 999 250 1509 66 201 164 444 220 547 l27 52 -349 313 c-193 172 -361
321 -374 331 -24 19 -25 18 -122 -31 -278 -143 -594 -246 -834 -272 -54 -5
-291 -10 -528 -10 -269 0 -430 -4 -430 -10 0 -15 -180 -199 -243 -247 -32 -25
-87 -60 -122 -79 -63 -32 -65 -33 -102 -17 -100 41 -286 194 -368 302 l-38 49
-486 4 c-456 4 -493 6 -595 27 -221 45 -440 123 -672 237 -71 35 -132 64 -135
64 -2 0 -150 -131 -329 -291z m455 127 c144 -70 356 -151 488 -186 231 -61
244 -63 753 -69 l470 -6 58 -65 c72 -80 162 -159 244 -213 l62 -41 0 -978 0
-978 -288 0 -288 0 -12 -61 c-19 -103 -81 -159 -176 -159 l-46 0 0 -265 0
-265 -791 0 -792 0 7 78 c3 42 11 133 17 202 16 196 13 648 -6 843 -35 362
-106 706 -217 1055 -45 143 -155 428 -199 514 -16 32 -29 63 -28 70 0 13 630
580 639 575 3 -1 50 -24 105 -51z m4847 -245 l307 -274 -26 -56 c-252 -561
-389 -1098 -434 -1701 -18 -253 -5 -740 26 -967 l6 -43 -795 0 -796 0 0 265 0
265 -45 0 c-99 0 -175 79 -175 181 l0 39 -295 0 -295 0 0 978 1 977 82 54 c46
31 128 102 188 162 l106 107 464 4 c391 4 479 7 559 22 204 39 463 127 685
235 78 37 103 46 116 37 8 -6 153 -134 321 -285z m-2612 -1336 l0 -955 -30 0
-30 0 0 955 0 955 30 0 30 0 0 -955z m610 -1109 c35 -74 82 -119 153 -144 l47
-17 0 -562 c0 -499 -2 -563 -15 -563 -29 0 -112 -49 -142 -83 -17 -19 -38 -56
-48 -81 l-18 -46 -622 0 -622 0 -12 39 c-17 59 -92 136 -154 159 l-52 20 -3
555 -2 556 60 27 c83 37 129 90 163 187 6 16 45 17 621 17 l615 0 31 -64z
m-1580 -721 l0 -35 -802 2 c-797 3 -803 3 -800 23 2 11 5 26 7 33 3 9 172 12
800 12 l795 0 0 -35z m3476 9 c4 -14 2 -30 -3 -35 -5 -5 -322 -8 -803 -7 -758
3 -795 4 -798 21 -10 49 -49 47 802 47 l796 0 6 -26z m-3476 -393 l0 -259 54
-7 c97 -12 150 -63 169 -163 l12 -62 287 0 288 0 0 -1266 0 -1266 -27 18
c-231 153 -680 387 -958 498 -414 166 -745 375 -1110 704 -97 87 -130 98 -287
89 l-109 -7 -64 98 c-35 54 -93 147 -130 207 -73 120 -215 400 -215 423 0 7
33 71 72 140 94 164 194 390 257 578 50 151 115 400 127 487 l7 47 813 0 814
0 0 -259z m3528 112 c78 -363 206 -694 384 -1001 l60 -103 -81 -162 c-74 -148
-230 -411 -308 -521 l-32 -45 -113 6 c-161 8 -176 2 -316 -121 -355 -312 -679
-514 -1097 -682 -278 -112 -628 -292 -871 -449 -47 -30 -87 -55 -89 -55 -3 0
-5 569 -5 1265 l0 1265 295 0 295 0 0 42 c0 53 33 122 71 149 16 11 57 26 89
32 l60 12 0 257 0 258 813 0 813 0 32 -147z m-2558 -1903 c0 -1253 -1 -1300
-18 -1309 -13 -7 -23 -6 -30 1 -9 9 -12 343 -12 1310 l0 1298 30 0 30 0 0
-1300z"/>
<path d="M2121 7103 c-6 -21 -47 -186 -91 -368 -73 -298 -81 -337 -77 -406 4
-89 35 -163 119 -285 66 -97 110 -222 134 -384 36 -247 -11 -472 -127 -604
l-42 -47 34 -36 c48 -50 102 -73 177 -73 133 0 239 60 434 247 202 194 273
235 432 253 129 15 194 -12 218 -92 6 -21 9 -40 7 -43 -3 -2 -25 6 -50 18 -38
19 -60 22 -159 22 -110 0 -119 -2 -182 -33 -36 -18 -82 -51 -103 -73 -39 -44
-79 -122 -89 -176 l-6 -33 228 0 c249 1 269 4 352 61 61 42 91 100 98 192 6
88 -14 143 -74 196 -44 39 -106 61 -170 61 -25 0 -23 4 58 160 80 155 84 160
114 160 35 0 64 -26 64 -58 0 -22 1 -22 211 -22 l212 0 -6 54 c-5 55 -32 118
-73 173 -32 42 -135 93 -189 93 -23 0 -44 3 -48 6 -3 3 50 74 119 157 l124
151 0 263 0 263 -33 0 c-63 0 -136 -29 -177 -70 -47 -47 -70 -116 -70 -214
l-1 -71 -141 -90 c-78 -49 -151 -97 -164 -105 -21 -13 -25 -12 -49 10 l-25 24
47 25 c83 46 88 59 91 244 3 140 6 164 23 188 16 24 19 45 19 163 l0 136 -580
0 -579 0 -10 -37z m220 -67 c-23 -28 -151 -60 -151 -38 0 4 3 17 6 30 6 20 12
22 81 22 64 0 74 -2 64 -14z m684 -25 c22 -49 59 -85 108 -106 20 -8 37 -17
37 -20 0 -3 -26 -2 -58 1 -84 9 -145 -19 -172 -78 -26 -57 -25 -114 3 -168 31
-61 74 -83 155 -77 53 4 62 2 62 -12 -1 -46 -50 -71 -137 -71 -64 0 -83 6
-292 95 -123 52 -259 116 -302 142 -72 43 -209 155 -209 172 0 4 26 12 58 19
69 14 139 56 177 106 l27 36 263 0 262 0 18 -39z m175 4 l0 -35 -31 13 c-18 7
-39 23 -47 35 -14 22 -14 22 32 22 46 0 46 0 46 -35z m-1007 -302 c8 -92 45
-154 142 -233 116 -94 251 -227 285 -280 16 -25 36 -65 44 -88 l15 -42 -254 0
-253 0 -36 49 c-51 69 -89 157 -94 216 -3 37 10 104 47 255 64 256 57 237 80
209 11 -15 20 -48 24 -86z m970 47 c20 -23 25 -35 18 -48 -17 -32 -49 -54 -88
-59 -48 -6 -77 21 -77 74 0 76 89 97 147 33z m517 -158 l0 -188 -141 -172
-141 -172 -48 0 -47 0 -12 53 c-6 28 -23 72 -36 96 -14 23 -25 44 -25 46 0 2
79 54 175 116 l175 113 0 86 c0 102 11 144 47 182 51 53 53 46 53 -160z
m-1275 21 c59 -34 134 -69 343 -157 294 -124 413 -221 457 -373 l6 -23 -218 0
-219 0 -17 57 c-39 125 -136 244 -317 388 -72 57 -118 102 -131 126 -26 51
-24 54 14 31 17 -11 55 -33 82 -49z m53 -685 c110 -89 156 -211 122 -327 -5
-19 -8 -37 -6 -39 3 -2 94 29 203 68 239 88 393 140 409 140 14 0 -128 -281
-148 -292 -7 -4 -38 -14 -68 -22 -91 -25 -175 -84 -317 -219 -158 -151 -233
-208 -311 -237 -57 -22 -142 -24 -162 -4 -5 5 6 32 26 64 73 116 111 305 100
500 -6 115 -40 293 -70 363 l-15 37 98 0 c96 0 99 -1 139 -32z m1168 13 c41
-18 104 -84 104 -108 0 -10 -28 -13 -114 -13 -110 0 -114 1 -130 25 -29 43
-71 58 -155 53 -62 -4 -124 -21 -346 -97 -148 -50 -278 -94 -287 -98 -14 -4
-18 0 -18 19 0 47 -30 125 -70 181 l-39 57 507 0 c472 0 510 -2 548 -19z
m-407 -742 c21 -6 48 -19 61 -29 24 -18 24 -18 5 -41 -43 -48 -88 -59 -252
-59 -84 0 -153 2 -153 5 0 16 35 56 70 80 72 50 186 69 269 44z"/>
<path d="M2635 6988 c19 -66 113 -91 160 -43 14 13 25 33 25 45 0 19 -6 20
-96 20 -94 0 -95 0 -89 -22z"/>
<path d="M6042 7299 c-161 -21 -238 -67 -422 -253 l-115 -116 -100 0 -100 -1
-170 -145 c-93 -80 -189 -157 -212 -171 -38 -22 -43 -29 -43 -62 0 -32 -6 -41
-49 -74 -62 -46 -109 -113 -133 -189 -25 -83 -24 -106 7 -114 14 -3 36 -4 50
-2 16 3 30 -1 41 -13 23 -26 28 -24 58 16 l27 35 -21 28 c-12 16 -25 45 -30
65 -7 35 -5 39 42 83 32 30 55 44 66 41 9 -3 35 -13 57 -21 52 -20 113 -20
216 0 144 26 301 64 329 79 49 25 87 82 104 155 4 15 23 36 49 52 23 15 76 57
117 93 181 160 271 203 355 170 51 -19 80 -51 95 -103 12 -46 -11 -98 -55
-125 -16 -11 -284 -153 -594 -317 -310 -164 -583 -312 -607 -329 -57 -39 -117
-133 -139 -214 -27 -99 -18 -263 17 -340 75 -161 277 -272 434 -239 103 21
428 177 801 383 190 106 231 106 240 1 6 -60 -13 -79 -122 -122 -265 -104
-435 -231 -507 -378 -32 -64 -33 -72 -33 -182 0 -97 4 -123 22 -162 43 -93
106 -145 242 -198 49 -19 53 -19 46 -3 -35 87 -48 140 -52 218 -11 182 25 230
254 342 183 90 282 153 344 219 93 101 129 195 129 340 0 117 -20 181 -77 244
-60 67 -123 92 -242 98 -186 9 -259 -18 -762 -285 -294 -156 -319 -164 -373
-122 -31 24 -35 72 -10 108 15 21 262 146 990 502 147 72 241 141 299 220 46
63 61 101 94 246 26 112 26 154 3 230 -48 154 -183 273 -349 308 -74 16 -115
17 -211 4z m233 -106 c98 -34 189 -114 228 -201 32 -72 27 -218 -5 -157 -41
76 -263 212 -364 222 -103 11 -208 -44 -389 -202 -55 -48 -119 -96 -141 -108
-37 -18 -42 -24 -48 -64 -8 -58 -33 -99 -71 -117 -38 -18 -296 -74 -372 -82
-44 -4 -66 -1 -93 13 -19 10 -35 23 -35 29 0 6 34 38 75 71 41 33 122 101 180
151 l105 91 105 1 105 0 145 145 c80 81 159 154 175 164 101 63 288 83 400 44z
m185 -490 l21 -55 -25 -42 c-28 -48 -114 -132 -171 -168 -22 -13 -276 -141
-565 -282 -289 -142 -538 -270 -553 -285 -37 -33 -57 -72 -62 -119 -3 -20 -10
-57 -16 -82 -15 -60 -6 -156 19 -213 12 -26 17 -47 12 -47 -26 0 -117 91 -145
145 -41 80 -47 192 -15 296 18 62 30 80 78 127 57 56 240 156 1051 580 186 97
207 110 232 150 16 25 31 65 35 90 l7 46 38 -43 c21 -23 47 -68 59 -98z m17
-731 c85 -44 118 -119 111 -251 -3 -71 -10 -99 -33 -147 -26 -53 -130 -173
-140 -162 -6 5 13 122 26 164 16 53 11 144 -11 189 -26 55 -69 78 -140 78 -52
-1 -70 -9 -250 -108 -248 -136 -595 -307 -683 -337 l-69 -23 -44 48 c-42 47
-86 148 -71 164 4 3 18 1 32 -5 32 -15 108 -15 157 -2 20 6 135 63 255 126
510 272 572 296 728 291 68 -3 100 -9 132 -25z m-162 -533 c-8 -23 -31 -62
-50 -88 -29 -41 -52 -57 -152 -106 -197 -98 -254 -179 -256 -357 0 -49 -3 -88
-6 -88 -11 1 -42 50 -56 91 -21 60 -19 148 6 214 43 116 200 245 404 332 55
23 105 43 112 43 9 0 8 -10 -2 -41z"/>
<path d="M5357 6664 c-71 -23 -76 -26 -67 -44 15 -27 42 -40 88 -40 46 0 78
29 88 78 8 40 0 40 -109 6z"/>
<path d="M3740 4755 c0 -45 0 -45 35 -45 l35 0 0 -395 0 -395 -35 0 c-35 0
-35 0 -35 -45 l0 -45 120 0 120 0 0 45 c0 45 0 45 -35 45 l-35 0 0 170 0 170
400 0 400 0 -2 -167 -3 -168 -37 -3 c-38 -3 -38 -4 -38 -48 l0 -44 125 0 125
0 0 44 c0 44 0 45 -37 48 l-38 3 -3 393 -2 392 40 0 40 0 0 45 0 45 -125 0
-125 0 0 -45 0 -45 40 0 40 0 0 -180 0 -180 -400 0 -400 0 0 180 0 180 35 0
c35 0 35 0 35 45 l0 45 -120 0 -120 0 0 -45z"/>
<path d="M2139 3947 c-61 -40 -75 -87 -57 -188 2 -10 -18 -32 -49 -56 -66 -50
-108 -102 -147 -183 -30 -62 -31 -71 -31 -190 0 -115 2 -130 27 -183 15 -32
41 -77 59 -102 l31 -44 -52 -91 c-44 -76 -59 -95 -89 -107 -112 -44 -153 -91
-167 -190 -10 -80 -3 -83 184 -83 l157 0 159 159 159 160 20 -25 c23 -29 114
-84 140 -84 21 0 19 -19 -12 -113 -14 -44 -21 -52 -46 -57 -97 -20 -178 -113
-199 -227 l-5 -33 197 0 197 0 114 107 115 106 44 -49 c57 -62 116 -181 107
-217 -6 -21 -15 -27 -48 -32 -147 -24 -247 -136 -247 -277 l0 -48 475 0 c261
0 475 -2 475 -4 0 -2 -12 -28 -27 -57 -23 -43 -27 -65 -27 -123 1 -83 17 -127
70 -186 50 -55 105 -82 182 -88 l63 -5 -3 549 c-4 618 -2 597 -83 771 -53 113
-89 165 -173 255 -143 152 -344 252 -565 283 -27 3 -47 9 -45 13 47 90 69 149
77 206 14 98 8 106 -82 106 -111 0 -200 24 -322 84 -113 56 -187 79 -287 91
l-58 6 0 37 c0 107 -138 172 -231 109z m123 -84 c21 -18 24 -62 6 -68 -7 -2
-30 -6 -51 -10 -33 -5 -38 -3 -48 19 -25 55 47 101 93 59z m278 -185 c61 -19
234 -107 180 -92 -14 3 -36 12 -50 19 -114 58 -346 83 -465 50 -36 -9 -94 -35
-128 -57 l-62 -40 35 37 c101 105 304 140 490 83z m-100 -106 c8 -4 16 -18 18
-32 3 -29 36 -60 64 -60 10 0 30 11 44 25 14 14 28 25 32 25 4 0 41 -13 83
-30 41 -16 102 -33 135 -39 47 -7 68 -17 99 -45 21 -20 43 -36 49 -36 14 0
-35 -50 -65 -66 -58 -30 -105 -33 -172 -12 -91 30 -217 29 -282 0 -112 -51
-175 -148 -175 -269 0 -85 -3 -87 -94 -53 -98 37 -188 135 -221 241 l-18 56
33 61 c59 110 175 209 274 233 39 9 176 10 196 1z m585 -69 c-10 -44 -19 -45
-55 -8 l-34 35 48 0 c48 0 48 0 41 -27z m-317 -295 c126 -40 238 -154 281
-286 34 -103 33 -105 -77 -207 -54 -49 -153 -141 -220 -202 l-121 -113 -105 0
c-58 0 -107 4 -110 9 -6 9 28 43 59 59 11 5 41 13 67 17 l48 7 21 72 c11 39
31 107 45 152 13 44 24 85 24 92 0 8 -17 12 -47 12 -62 1 -120 27 -161 75 -41
46 -52 74 -52 131 0 78 40 148 105 182 69 36 132 36 243 0z m497 -33 c280 -81
508 -309 584 -584 l19 -70 -63 44 c-120 82 -242 109 -371 82 -122 -26 -244
-103 -294 -185 -14 -23 -28 -42 -31 -42 -4 0 -19 19 -34 43 -15 23 -43 61 -63
85 l-34 43 91 86 91 85 0 56 c0 114 -56 248 -143 340 l-52 55 105 -6 c68 -4
137 -15 195 -32z m-1108 -259 c26 -14 61 -28 76 -31 15 -4 27 -11 25 -16 -2
-4 -54 -62 -116 -129 l-113 -120 -99 0 c-54 0 -101 4 -104 9 -12 18 45 70 87
81 23 6 49 13 57 16 8 2 42 51 74 109 33 58 61 105 62 105 1 0 24 -11 51 -24z
m1493 -373 c57 -19 116 -60 163 -112 64 -71 67 -82 67 -271 l0 -170 -510 0
c-373 0 -510 3 -510 11 0 26 45 81 86 105 32 19 63 27 117 31 l74 6 6 61 c7
89 41 167 97 229 109 119 261 160 410 110z m230 -828 c0 -96 -2 -175 -5 -175
-19 0 -68 35 -89 62 -70 93 -43 220 59 276 11 6 23 12 28 12 4 0 7 -79 7 -175z"/>
<path d="M5765 3987 c-141 -56 -222 -189 -201 -330 l7 -45 42 13 c39 11 42 15
42 46 l0 34 103 3 c116 3 114 5 128 -96 l6 -49 -52 -7 c-81 -11 -124 -38 -192
-124 -90 -113 -311 -427 -601 -852 -243 -355 -255 -376 -238 -391 10 -8 22
-25 25 -37 9 -27 9 -27 81 -2 32 11 60 18 62 17 2 -2 -51 -79 -117 -170 l-120
-167 243 0 c370 0 373 2 456 273 l54 177 51 1 c28 0 72 4 98 8 27 4 50 6 52 4
2 -3 -2 -28 -11 -56 l-15 -51 28 -23 c16 -13 55 -33 87 -45 31 -11 57 -21 57
-22 0 0 -7 -23 -15 -50 -22 -73 -21 -76 30 -76 43 0 44 1 56 41 14 46 53 81
83 77 12 -2 27 -17 36 -35 14 -29 19 -33 59 -33 43 0 43 0 38 33 -3 17 -8 42
-12 53 -5 17 -2 23 20 28 34 9 45 1 45 -34 0 -25 5 -31 38 -39 53 -15 52 -16
52 39 0 105 -48 145 -166 138 -53 -4 -84 -12 -120 -32 -40 -22 -55 -26 -93
-20 -49 7 -111 29 -111 39 0 3 5 26 11 50 11 43 13 45 68 61 87 25 169 62 247
110 40 24 74 44 78 44 3 0 6 -20 6 -45 l0 -45 75 0 74 0 -25 -37 c-20 -29 -24
-46 -20 -72 5 -31 40 -81 57 -81 14 0 48 66 44 86 -4 14 9 28 51 58 60 41 74
39 74 -11 0 -21 5 -23 49 -23 l50 0 -6 38 c-3 20 -12 49 -19 63 -16 32 -10 39
32 39 23 0 37 -6 44 -20 13 -25 100 -30 100 -5 0 25 -31 81 -53 95 -55 34
-152 29 -207 -10 -24 -17 -44 -20 -129 -20 l-101 0 0 35 c0 28 13 50 64 114
106 132 184 292 222 459 9 39 19 72 22 72 3 0 14 -8 25 -17 26 -23 36 -61
-119 430 l-129 407 -285 -1 c-193 0 -295 -4 -315 -12z m52 -184 c-3 -2 -35 -3
-73 -1 l-68 3 38 39 c21 21 53 44 70 51 l31 13 3 -50 c2 -28 1 -52 -1 -55z
m554 -130 c42 -131 74 -240 72 -242 -1 -2 -36 24 -78 58 l-75 62 0 -85 c0 -47
-2 -86 -4 -86 -14 0 -291 142 -298 152 -4 7 -8 31 -8 53 0 51 -25 150 -45 178
-9 14 -15 45 -15 84 l0 63 188 0 188 0 75 -237z m-389 -255 c90 -46 165 -116
199 -185 34 -70 34 -188 -1 -258 -68 -138 -295 -314 -595 -460 -209 -101 -619
-264 -633 -251 -5 5 379 569 587 860 177 249 239 322 284 335 43 12 69 5 159
-41z m485 -135 l33 -28 -21 -99 c-42 -206 -124 -363 -258 -497 -109 -108 -217
-175 -361 -223 -100 -33 -293 -71 -327 -64 -8 2 51 36 131 76 304 153 510 318
591 472 34 66 39 85 43 160 3 66 0 98 -15 143 -11 31 -16 57 -11 57 5 0 31
-11 58 -25 l50 -25 0 61 0 60 28 -20 c15 -11 42 -33 59 -48z m-1077 -1011 c0
-25 -92 -298 -106 -313 -9 -11 -33 -23 -53 -29 -38 -10 -301 -14 -301 -4 0 3
48 72 106 152 l106 147 66 27 c64 25 182 39 182 20z"/>
<path d="M5990 3841 c0 -28 47 -61 85 -61 38 0 85 33 85 61 0 17 -8 19 -85 19
-77 0 -85 -2 -85 -19z"/>
</g>
</svg>
