<?xml version="1.0" standalone="no"?>
<!DOCTYPE svg PUBLIC "-//W3C//DTD SVG 20010904//EN"
 "http://www.w3.org/TR/2001/REC-SVG-20010904/DTD/svg10.dtd">
<svg version="1.0" xmlns="http://www.w3.org/2000/svg"
 width="475.000000pt" height="559.000000pt" viewBox="0 0 475.000000 559.000000"
 preserveAspectRatio="xMidYMid meet">

<g transform="translate(0.000000,559.000000) scale(0.100000,-0.100000)"
fill="current" stroke="none">
<path d="M2000 5479 c-794 -18 -1429 -83 -1700 -174 -41 -14 -81 -29 -88 -33
-20 -13 -45 -604 -63 -1477 -18 -911 12 -1759 71 -1989 113 -444 580 -900
1376 -1347 233 -130 697 -352 764 -365 38 -8 397 154 682 307 855 459 1371
945 1487 1402 23 87 47 340 62 647 26 521 5 2057 -37 2722 l-6 97 -57 22
c-347 130 -1435 213 -2491 188z m1015 -290 c622 -25 1061 -81 1261 -160 l51
-20 7 -187 c4 -103 12 -277 17 -387 16 -341 23 -1691 10 -1960 -15 -302 -35
-499 -61 -594 -24 -85 -83 -209 -142 -296 -52 -76 -176 -225 -188 -225 -5 0
-17 26 -26 57 -29 99 -7 196 90 405 90 193 122 329 113 472 -9 142 -57 263
-162 411 -183 257 -334 326 -907 415 -248 38 -319 55 -393 94 -113 59 -308
271 -350 380 -24 63 -14 104 41 165 31 35 69 62 118 86 79 38 235 79 342 90
65 7 72 10 117 55 46 46 47 48 47 111 0 41 -5 72 -15 86 -8 12 -83 58 -166
103 -83 46 -152 87 -154 94 -2 6 -6 22 -9 36 -4 19 -45 50 -175 133 l-170 108
-6 43 c-4 24 -5 65 -3 92 l3 49 -58 -3 c-74 -3 -130 -31 -162 -82 -18 -29 -33
-40 -57 -44 -147 -22 -229 -40 -267 -58 -42 -20 -45 -20 -111 -4 -118 28 -149
21 -228 -57 -67 -66 -79 -104 -57 -188 19 -72 38 -35 -158 -309 -157 -221
-283 -419 -335 -528 -32 -67 -36 -84 -43 -203 -13 -223 -40 -279 -164 -346
-71 -38 -242 -103 -271 -103 -20 0 -24 187 -14 730 9 482 16 709 36 1201 l7
157 31 14 c162 78 647 141 1286 168 456 19 792 19 1275 -1z m-2300 -2633 c88
-42 150 -66 171 -66 10 0 12 9 8 30 -6 28 -5 30 25 30 28 0 43 -14 156 -157
69 -86 125 -165 125 -174 0 -19 -176 -181 -249 -230 -43 -28 -48 -29 -166 -29
-119 0 -123 1 -163 29 -22 16 -43 34 -46 40 -10 16 24 42 99 77 l70 33 -67 0
-68 1 0 33 c1 39 25 110 40 115 47 16 -77 48 -143 37 -23 -4 -50 -12 -60 -17
-26 -13 -29 -7 -12 26 14 26 13 28 -15 37 -28 10 -29 11 -32 102 -2 51 -2 94
0 96 4 8 206 -30 235 -44 32 -16 32 -15 12 32 -17 40 -18 46 -7 41 4 -2 43
-21 87 -42z m1005 -676 c18 -27 59 -70 93 -96 237 -178 875 -357 1368 -384
230 -12 252 -25 278 -158 14 -66 2 -93 -66 -151 -55 -46 -141 -96 -151 -86 -3
3 1 27 11 53 10 26 19 52 20 57 1 6 -49 10 -136 10 -75 0 -137 4 -137 8 0 4 7
23 15 43 12 30 12 36 0 40 -32 13 -121 -31 -203 -100 -38 -31 -51 -36 -94 -36
-44 0 -193 34 -453 105 -144 38 -354 31 -521 -20 -45 -14 -61 -13 -214 11
-283 44 -330 56 -350 94 -17 32 -12 39 45 55 30 9 55 19 55 21 0 3 -38 23 -85
45 -52 24 -85 46 -85 55 0 19 88 106 144 142 l40 27 -55 3 c-74 5 -157 -13
-263 -55 -85 -33 -91 -34 -121 -20 -22 11 -34 26 -43 55 -7 21 -12 44 -12 49
0 30 146 58 474 88 l69 7 -42 18 c-89 40 -24 68 122 52 79 -8 85 -6 66 29 -8
16 -7 25 6 39 15 17 37 23 140 44 46 9 54 4 85 -44z"/>
</g>
</svg>
