<?xml version="1.0" standalone="no"?>
<!DOCTYPE svg PUBLIC "-//W3C//DTD SVG 20010904//EN"
 "http://www.w3.org/TR/2001/REC-SVG-20010904/DTD/svg10.dtd">
<svg version="1.0" xmlns="http://www.w3.org/2000/svg"
 width="181.000000pt" height="580.000000pt" viewBox="0 0 181.000000 580.000000"
 preserveAspectRatio="xMidYMid meet">

<g transform="translate(0.000000,580.000000) scale(0.100000,-0.100000)"
fill="#000000" stroke="none">
<path d="M499 5661 c-20 -21 -29 -40 -29 -63 0 -18 23 -117 52 -220 l53 -188
325 0 325 0 53 188 c29 103 52 202 52 220 0 23 -9 42 -29 63 l-29 29 -372 0
-372 0 -29 -29z"/>
<path d="M232 5179 c-47 -14 -109 -79 -123 -131 -32 -120 42 -237 161 -253 25
-4 58 -11 73 -17 58 -22 57 -11 57 -678 l0 -611 73 6 c183 17 285 49 402 126
155 101 290 151 443 164 l82 8 0 459 c0 501 0 504 57 526 15 6 48 13 73 17 57
8 111 43 141 92 34 54 34 152 0 206 -37 60 -89 89 -169 95 l-69 4 -13 -48
c-24 -90 -42 -124 -71 -139 -42 -22 -856 -22 -898 0 -29 15 -47 49 -71 138
l-13 47 -51 -1 c-28 0 -66 -5 -84 -10z"/>
<path d="M1256 3574 c-80 -15 -188 -64 -277 -124 -126 -86 -259 -130 -458
-150 -57 -5 -107 -10 -112 -10 -5 0 -9 -650 -9 -1560 0 -1697 -3 -1602 55
-1628 37 -17 853 -17 890 0 58 26 55 -83 55 1778 l0 1710 -37 -1 c-21 0 -69
-7 -107 -15z m-507 -898 c15 -8 32 -26 39 -41 17 -37 17 -1253 0 -1290 -13
-29 -55 -55 -88 -55 -33 0 -75 26 -88 55 -18 40 -16 1261 2 1294 26 47 84 63
135 37z m0 -1600 c38 -20 51 -55 51 -136 0 -81 -13 -116 -51 -136 -52 -27
-115 -8 -137 41 -16 35 -15 164 2 194 26 47 84 63 135 37z"/>
</g>
</svg>
