<?xml version="1.0" standalone="no"?>
<!DOCTYPE svg PUBLIC "-//W3C//DTD SVG 20010904//EN"
 "http://www.w3.org/TR/2001/REC-SVG-20010904/DTD/svg10.dtd">
<svg version="1.0" xmlns="http://www.w3.org/2000/svg"
 width="177.000000pt" height="168.000000pt" viewBox="0 0 177.000000 168.000000"
 preserveAspectRatio="xMidYMid meet">

<g transform="translate(0.000000,168.000000) scale(0.100000,-0.100000)"
fill="#CDB750" stroke="none">
<path d="M1089 1568 c-11 -44 -10 -281 3 -293 3 -4 16 3 28 15 30 30 35 19 11
-21 -12 -19 -21 -47 -21 -62 l0 -28 30 21 c35 25 37 22 10 -22 -31 -50 -22
-112 10 -73 7 8 17 15 23 15 7 0 7 -4 -1 -12 -22 -22 -13 -64 27 -119 22 -30
52 -72 68 -95 25 -36 35 -43 92 -56 l64 -15 -6 106 c-9 168 -53 308 -143 461
-48 80 -158 220 -174 220 -5 0 -14 -19 -21 -42z"/>
<path d="M103 1344 c-14 -38 59 -215 120 -289 37 -46 49 -44 41 4 -3 21 -2 47
4 56 7 14 12 3 22 -49 20 -108 70 -144 70 -51 0 24 5 47 10 50 6 4 10 -9 10
-32 0 -47 34 -123 55 -123 11 0 15 10 15 38 0 60 15 70 29 19 21 -74 42 -89
196 -142 77 -26 146 -50 153 -53 6 -2 12 3 12 12 0 23 9 20 33 -10 11 -14 40
-35 65 -45 42 -18 46 -18 63 -3 11 10 19 20 19 25 0 10 -208 165 -326 243
-126 82 -322 185 -434 227 -47 18 -86 33 -88 34 -1 1 2 14 7 28 10 26 11 26
48 13 224 -79 530 -254 753 -431 52 -41 97 -75 100 -75 3 0 12 5 20 11 12 8 4
20 -45 65 -254 234 -499 381 -765 457 -127 37 -179 42 -187 21z"/>
<path d="M1204 776 c-150 -36 -252 -161 -262 -317 -5 -89 11 -150 61 -225 l32
-49 6 81 c4 52 13 92 25 112 18 32 67 62 100 62 29 0 102 -40 124 -67 18 -24
25 -25 78 -20 61 5 125 32 154 64 9 10 21 38 27 63 6 29 20 53 37 67 25 20 27
24 16 48 -37 81 -130 155 -227 180 -69 18 -101 18 -171 1z"/>
<path d="M1616 493 c-11 -11 -6 -49 9 -69 13 -18 14 -16 15 23 0 40 -10 60
-24 46z"/>
<path d="M1544 361 c-30 -27 -30 -28 -25 -106 l6 -79 37 43 c20 24 43 62 51
85 13 40 13 42 -12 62 l-27 22 -30 -27z"/>
<path d="M1131 361 c-26 -26 -35 -78 -27 -155 4 -45 11 -66 27 -78 60 -50 255
-51 308 -2 9 8 16 43 19 95 l5 82 -33 -6 c-18 -4 -48 -7 -66 -7 -23 0 -34 -5
-34 -14 0 -8 -11 -28 -24 -43 -20 -23 -32 -28 -71 -28 -39 0 -51 5 -71 29 -14
15 -23 33 -21 40 6 18 49 20 59 2 11 -20 42 -21 58 -1 22 26 -27 82 -87 99
-15 5 -28 1 -42 -13z"/>
</g>
</svg>
