<?xml version="1.0" standalone="no"?>
<!DOCTYPE svg PUBLIC "-//W3C//DTD SVG 20010904//EN"
 "http://www.w3.org/TR/2001/REC-SVG-20010904/DTD/svg10.dtd">
<svg version="1.0" xmlns="http://www.w3.org/2000/svg"
 width="625.000000pt" height="609.000000pt" viewBox="0 0 625.000000 609.000000"
 preserveAspectRatio="xMidYMid meet">

<g transform="translate(0.000000,609.000000) scale(0.100000,-0.100000)"
fill="current" stroke="none">
<path d="M2937 6075 c-391 -74 -693 -353 -794 -733 -36 -133 -38 -353 -6 -482
94 -371 375 -653 738 -741 44 -10 92 -19 108 -19 l27 0 0 -1965 c0 -1501 3
-1970 12 -1990 13 -29 55 -55 88 -55 33 0 75 26 88 55 9 20 12 489 12 1990 l0
1965 28 0 c15 0 63 9 107 19 463 112 786 543 762 1016 -24 449 -327 818 -762
926 -107 27 -304 34 -408 14z m317 -405 c113 -29 190 -73 276 -160 87 -86 131
-163 160 -276 53 -205 -6 -412 -159 -565 -190 -189 -466 -232 -704 -107 -81
42 -203 164 -245 245 -42 80 -72 198 -72 283 0 85 30 203 72 283 42 81 164
203 245 245 133 70 286 88 427 52z"/>
<path d="M944 4476 c-110 -21 -182 -44 -272 -88 -261 -127 -453 -362 -529
-646 -36 -133 -38 -353 -6 -482 94 -371 375 -653 738 -741 44 -10 92 -19 108
-19 l27 0 0 -1165 c0 -881 3 -1170 12 -1190 13 -29 55 -55 88 -55 33 0 75 26
88 55 9 20 12 309 12 1190 l0 1165 28 0 c15 0 63 9 107 19 463 112 786 543
762 1016 -20 378 -234 697 -576 862 -163 77 -416 112 -587 79z m291 -401 c270
-57 475 -309 475 -585 0 -276 -205 -528 -475 -585 -139 -29 -282 -9 -408 57
-81 42 -203 164 -245 245 -125 238 -82 514 107 704 149 149 342 207 546 164z"/>
<path d="M4944 4076 c-110 -21 -182 -44 -272 -88 -261 -127 -453 -362 -529
-646 -36 -133 -38 -353 -6 -482 94 -371 375 -653 738 -741 44 -10 92 -19 108
-19 l27 0 0 -965 c0 -726 3 -971 12 -990 13 -29 55 -55 88 -55 33 0 75 26 88
55 9 19 12 264 12 990 l0 965 28 0 c15 0 63 9 107 19 463 112 786 543 762
1016 -24 449 -327 818 -762 926 -104 26 -304 34 -401 15z m310 -406 c113 -29
190 -73 276 -160 87 -86 131 -163 160 -276 53 -205 -6 -412 -159 -565 -190
-189 -466 -232 -704 -107 -81 42 -203 164 -245 245 -42 80 -72 198 -72 283 0
85 30 203 72 283 42 81 164 203 245 245 133 70 286 88 427 52z"/>
</g>
</svg>
