<?xml version="1.0" standalone="no"?>
<!DOCTYPE svg PUBLIC "-//W3C//DTD SVG 20010904//EN"
 "http://www.w3.org/TR/2001/REC-SVG-20010904/DTD/svg10.dtd">
<svg version="1.0" xmlns="http://www.w3.org/2000/svg"
 width="570.000000pt" height="528.000000pt" viewBox="0 0 570.000000 528.000000"
 preserveAspectRatio="xMidYMid meet">

<g transform="translate(0.000000,528.000000) scale(0.100000,-0.100000)"
fill="current" stroke="none">
<path d="M5355 5124 c-185 -64 -472 -146 -665 -189 -319 -72 -716 -166 -853
-202 l-139 -37 -53 -106 c-54 -107 -76 -130 -126 -130 -69 0 -120 81 -89 141
13 24 17 24 -104 -11 -216 -63 -485 -161 -721 -265 -139 -60 -522 -254 -593
-298 -82 -53 -297 -337 -383 -509 -65 -129 -109 -267 -109 -346 0 -63 -44
-112 -101 -112 -35 0 -76 28 -89 61 -31 73 39 352 125 504 l43 75 -30 -18
c-150 -87 -448 -362 -581 -533 l-67 -87 0 -99 c0 -126 23 -260 66 -390 38
-115 39 -123 20 -162 -25 -47 -83 -63 -135 -36 -35 18 -84 128 -110 248 -10
45 -20 77 -23 71 -11 -17 -46 -166 -57 -241 -25 -167 -8 -400 45 -593 30 -109
93 -280 104 -280 12 0 163 218 260 375 176 286 277 428 449 635 652 783 1602
1415 2908 1934 316 126 362 141 396 132 70 -17 98 -99 55 -159 -7 -9 -117 -57
-243 -106 -1171 -452 -2014 -960 -2661 -1606 -313 -312 -538 -602 -744 -960
-62 -107 -212 -409 -224 -451 -6 -20 -2 -21 166 -32 331 -23 384 -24 498 -13
322 31 538 153 731 412 33 45 58 83 57 85 -2 1 -34 -6 -72 -17 -161 -44 -468
-66 -531 -37 -29 13 -55 55 -55 88 0 35 27 76 57 88 15 6 98 13 183 16 230 9
353 40 515 130 60 34 69 44 88 90 38 93 135 279 200 386 36 58 64 106 63 107
-1 2 -40 -2 -87 -7 -46 -5 -121 -10 -166 -10 -77 0 -85 2 -115 29 -27 24 -33
36 -33 71 0 34 6 47 31 70 30 26 37 27 165 33 138 5 237 22 349 59 58 18 77
32 170 122 216 210 487 404 741 532 l93 46 -63 32 c-86 44 -110 91 -77 155 15
28 53 51 87 51 10 0 74 -28 142 -61 l122 -62 85 44 c142 73 384 223 508 315
135 102 341 303 429 419 103 137 194 283 270 434 72 142 85 185 61 209 -19 19
-43 14 -183 -34z"/>
<path d="M630 1187 c-271 -231 -449 -556 -500 -914 -15 -100 -9 -130 26 -139
23 -6 43 10 193 160 l167 167 12 93 c15 110 72 334 137 534 25 79 45 148 43
153 -2 6 -37 -18 -78 -54z"/>
</g>
</svg>
