<?xml version="1.0" standalone="no"?>
<!DOCTYPE svg PUBLIC "-//W3C//DTD SVG 20010904//EN"
 "http://www.w3.org/TR/2001/REC-SVG-20010904/DTD/svg10.dtd">
<svg version="1.0" xmlns="http://www.w3.org/2000/svg"
 width="474.000000pt" height="563.000000pt" viewBox="0 0 474.000000 563.000000"
 preserveAspectRatio="xMidYMid meet">

<g transform="translate(0.000000,563.000000) scale(0.100000,-0.100000)"
fill="current" stroke="none">
<path d="M1990 5519 c-794 -18 -1429 -83 -1700 -174 -41 -14 -81 -29 -88 -33
-20 -13 -45 -604 -63 -1477 -18 -911 12 -1759 71 -1989 58 -227 181 -420 424
-661 280 -278 662 -540 1162 -796 217 -112 510 -247 554 -255 38 -8 380 146
672 302 822 440 1331 901 1477 1340 53 157 76 438 91 1077 13 553 -5 1540 -40
2242 -6 105 -10 195 -10 202 0 14 -85 47 -190 74 -400 104 -1446 170 -2360
148z m1025 -290 c623 -26 1111 -90 1270 -166 l32 -15 7 -187 c4 -102 12 -278
17 -391 16 -346 23 -1684 10 -1955 -22 -443 -46 -595 -116 -739 -40 -81 -114
-196 -125 -196 -13 0 -263 276 -331 365 -84 110 -89 145 -22 145 40 0 146 26
181 44 23 12 23 13 -17 28 -49 19 -51 31 -11 48 39 16 54 43 40 69 -12 24
-194 118 -351 181 -66 26 -122 50 -125 52 -2 2 20 1 49 -3 80 -12 240 -10 299
2 93 20 165 68 152 102 -9 25 -33 28 -117 16 -177 -26 -400 7 -543 79 l-56 28
54 12 c58 14 190 76 209 98 10 12 4 14 -42 8 -107 -12 -308 35 -451 107 -35
17 -101 57 -148 88 l-85 56 40 3 c155 10 376 66 492 126 l48 24 -40 6 c-100
15 -157 28 -192 43 l-38 16 85 17 c162 33 340 107 534 220 58 34 106 63 106
65 0 1 -20 0 -44 -2 -25 -3 -61 -2 -81 1 l-36 7 60 39 c62 41 123 118 137 174
l7 29 -34 -25 c-79 -60 -296 -148 -363 -148 -48 0 -82 20 -73 42 3 9 48 30
103 48 280 92 442 212 467 347 8 40 -6 51 -21 18 -7 -14 -18 -25 -25 -25 -10
0 -12 14 -9 60 7 92 3 96 -65 61 -198 -100 -816 -265 -1087 -290 -145 -14
-315 -71 -633 -212 l-115 -51 -94 63 -94 62 0 51 c0 72 -25 181 -56 243 -32
66 -100 127 -166 149 -39 13 -73 15 -147 11 -103 -5 -185 -27 -311 -82 -46
-20 -106 -37 -155 -43 -93 -12 -255 -62 -337 -103 -86 -43 -106 -85 -73 -149
16 -31 29 -37 41 -19 3 6 25 20 48 30 50 23 131 24 210 4 66 -17 208 -85 251
-119 l29 -23 -32 -80 c-42 -106 -77 -231 -92 -324 -16 -99 -8 -324 14 -404 76
-274 314 -509 632 -624 l61 -23 12 -66 c9 -51 65 -209 99 -283 2 -4 -31 -34
-72 -68 -68 -56 -79 -61 -122 -61 -31 0 -66 9 -101 27 -30 14 -77 28 -104 31
-45 4 -51 2 -85 -32 -31 -31 -43 -36 -81 -36 -45 0 -118 -38 -153 -81 -14 -18
-18 -18 -90 2 -101 28 -174 21 -341 -32 -74 -23 -139 -44 -145 -46 -26 -10
-112 181 -139 306 -45 213 -68 969 -54 1745 8 459 13 635 35 1167 l7 157 32
15 c286 137 1470 213 2570 166z m-148 -3217 c18 -24 43 -77 55 -118 24 -77 32
-88 43 -54 9 28 17 25 45 -21 14 -23 65 -80 113 -127 l88 -87 -4 -48 -4 -48
26 25 c15 15 32 26 38 26 15 0 91 -84 148 -165 l50 -70 3 68 c2 37 6 67 11 67
7 0 97 -117 128 -166 10 -16 12 -11 13 36 0 30 3 65 6 77 l6 23 37 -29 c72
-56 104 -71 159 -71 28 0 52 2 52 5 0 2 -9 19 -20 37 -39 64 -17 128 43 128
32 0 97 -37 97 -55 0 -13 -139 -150 -230 -227 -94 -80 -255 -198 -269 -198 -7
0 -27 11 -45 25 -32 25 -36 25 -214 25 l-181 0 -55 73 c-60 80 -154 172 -293
290 -51 42 -93 85 -93 95 0 9 -16 48 -35 85 -28 55 -35 80 -35 126 0 50 5 66
45 130 119 193 201 236 272 143z m-541 -50 c164 -113 163 -111 70 -209 -61
-65 -66 -68 -112 -69 -39 -1 -52 -6 -71 -28 -13 -15 -23 -37 -23 -49 0 -18
-10 -26 -46 -40 -44 -16 -47 -16 -84 3 -27 14 -59 20 -105 20 -56 0 -65 3 -65
18 0 10 -13 59 -28 109 l-29 90 186 101 c102 56 198 101 212 102 15 0 55 -20
95 -48z"/>
</g>
</svg>
