<?xml version="1.0" standalone="no"?>
<!DOCTYPE svg PUBLIC "-//W3C//DTD SVG 20010904//EN"
 "http://www.w3.org/TR/2001/REC-SVG-20010904/DTD/svg10.dtd">
<svg version="1.0" xmlns="http://www.w3.org/2000/svg"
 width="474.000000pt" height="564.000000pt" viewBox="0 0 474.000000 564.000000"
 preserveAspectRatio="xMidYMid meet">

<g transform="translate(0.000000,564.000000) scale(0.100000,-0.100000)"
fill="current" stroke="none">
<path d="M2000 5509 c-794 -18 -1429 -83 -1700 -174 -41 -14 -81 -29 -88 -34
-28 -17 -65 -1152 -65 -2006 0 -779 24 -1270 73 -1459 58 -227 181 -420 424
-661 280 -278 662 -540 1162 -796 217 -112 510 -247 554 -255 44 -9 489 198
795 369 790 441 1262 901 1375 1341 21 84 45 334 61 636 26 502 4 2116 -37
2737 l-6 92 -56 22 c-348 130 -1436 213 -2492 188z m1020 -290 c615 -25 1057
-82 1256 -160 l51 -20 7 -177 c4 -97 12 -274 17 -392 16 -360 23 -1693 10
-1965 -15 -303 -35 -499 -62 -595 -32 -117 -122 -283 -213 -394 l-24 -29 -6
89 c-28 381 -78 559 -353 1249 -106 266 -155 370 -297 620 -122 216 -140 261
-132 340 12 136 62 276 136 385 25 36 44 78 47 101 5 38 5 39 -25 39 -44 0
-197 -80 -274 -144 -83 -69 -159 -175 -190 -264 -28 -83 -30 -218 -5 -303 9
-30 70 -166 136 -302 147 -303 224 -474 256 -568 23 -68 31 -109 20 -109 -2 0
-45 13 -95 30 -190 61 -431 97 -580 85 -266 -20 -426 -112 -569 -326 -95 -141
-119 -240 -102 -415 15 -149 51 -279 112 -403 42 -85 65 -118 128 -181 114
-115 225 -160 392 -160 184 0 410 77 642 217 32 19 61 33 64 29 10 -10 -48
-178 -92 -266 -124 -246 -318 -409 -570 -476 -98 -26 -389 -27 -485 -1 -308
83 -514 346 -537 687 -11 162 58 530 142 755 50 136 143 313 217 415 343 472
520 764 589 970 l32 95 -6 185 c-7 202 -19 282 -65 408 -72 196 -196 328 -362
384 -51 17 -88 22 -170 22 -174 0 -398 -21 -475 -45 -157 -48 -293 -146 -376
-273 -22 -34 -68 -84 -101 -111 -121 -101 -215 -242 -225 -339 -4 -44 0 -60
26 -110 19 -35 31 -73 31 -95 0 -20 7 -46 15 -57 14 -18 15 -17 10 16 -4 22
-1 41 7 52 11 15 19 15 61 6 34 -8 60 -9 86 -2 l38 10 -33 -44 c-19 -24 -34
-52 -34 -63 0 -11 -9 -20 -22 -23 -98 -20 -132 -31 -161 -50 -30 -21 -32 -25
-38 -100 l-5 -78 -57 -50 c-58 -51 -99 -111 -111 -161 -11 -46 4 -50 33 -10
36 49 100 105 112 98 5 -4 9 -15 9 -26 0 -33 38 -96 72 -120 29 -21 31 -21 23
-3 -20 44 -17 110 6 155 17 33 23 65 25 128 3 93 11 108 73 136 39 17 40 17
63 -5 41 -40 106 -63 178 -62 135 1 292 89 480 269 76 73 129 114 169 133 32
15 74 44 94 63 l35 36 7 -37 c9 -53 -11 -195 -41 -299 -54 -189 -198 -439
-363 -633 -302 -354 -486 -669 -605 -1038 -68 -210 -118 -547 -101 -681 l7
-54 -50 42 c-81 67 -242 241 -304 327 -111 155 -168 291 -192 459 -40 276 -58
936 -45 1674 8 454 14 664 35 1172 l7 157 31 14 c193 92 851 163 1671 182 184
4 618 -3 895 -15z m59 -3099 c41 -11 83 -26 94 -31 18 -10 17 -12 -14 -34 -66
-44 -208 -116 -285 -144 -146 -53 -228 -49 -279 11 -22 26 -25 37 -20 67 14
78 74 131 167 151 70 15 254 4 337 -20z"/>
</g>
</svg>
