<?xml version="1.0" standalone="no"?>
<!DOCTYPE svg PUBLIC "-//W3C//DTD SVG 20010904//EN"
 "http://www.w3.org/TR/2001/REC-SVG-20010904/DTD/svg10.dtd">
<svg version="1.0" xmlns="http://www.w3.org/2000/svg"
 width="462.000000pt" height="545.000000pt" viewBox="0 0 462.000000 545.000000"
 preserveAspectRatio="xMidYMid meet">

<g transform="translate(0.000000,545.000000) scale(0.100000,-0.100000)"
fill="current" stroke="none">
<path d="M2978 5312 c-92 -31 -174 -64 -182 -72 -8 -8 -124 -255 -257 -548
-166 -366 -248 -537 -263 -545 -12 -7 -79 -14 -161 -17 l-140 -5 -147 -250
c-81 -137 -147 -253 -147 -256 -1 -3 155 -72 347 -154 l347 -148 330 -328 330
-329 220 146 c121 81 221 148 223 149 2 2 -33 58 -77 125 -53 80 -81 131 -81
150 0 19 28 70 81 151 44 67 83 128 86 136 3 7 -73 110 -170 231 -184 231
-197 249 -197 281 0 55 20 71 212 167 l188 94 0 104 0 104 -32 7 c-18 4 -57
16 -86 27 -75 28 -100 83 -68 147 15 27 53 51 84 51 9 0 252 -72 540 -161 288
-88 525 -159 526 -157 4 3 -269 443 -304 491 l-21 27 -284 0 -283 0 -175 115
c-108 72 -178 125 -186 141 -6 14 -11 52 -11 85 0 75 -12 99 -48 98 -15 0
-102 -26 -194 -57z"/>
<path d="M1458 3240 c-54 -93 -98 -177 -98 -187 0 -10 30 -48 66 -83 70 -70
94 -105 94 -142 0 -12 -85 -172 -190 -355 -104 -183 -190 -340 -190 -348 0 -8
41 -96 90 -195 50 -99 90 -189 90 -199 0 -43 -29 -73 -235 -236 -139 -110
-217 -179 -221 -194 -5 -18 8 -55 54 -148 l62 -123 1332 2 1332 3 22 88 c25
100 23 121 -14 136 -15 5 -209 46 -431 90 l-404 81 -654 -51 c-713 -55 -699
-55 -728 2 -28 53 -9 115 42 138 15 7 297 125 625 262 l598 249 171 0 c111 0
178 -4 192 -12 12 -6 102 -72 200 -145 98 -74 184 -136 192 -139 15 -6 245
291 245 316 0 16 -79 231 -89 242 -3 4 -64 -31 -135 -77 -128 -85 -156 -96
-199 -74 -12 6 -81 69 -153 140 l-130 130 -577 -241 c-317 -132 -586 -240
-597 -240 -71 0 -121 80 -89 143 6 12 106 117 222 234 116 117 209 215 206
218 -3 3 -75 57 -160 121 -85 63 -160 126 -167 140 -7 14 -69 156 -138 317
-69 161 -128 295 -132 299 -4 3 -51 -70 -104 -162z"/>
<path d="M1846 3257 c20 -45 63 -145 96 -223 l60 -141 198 -148 c109 -82 203
-159 209 -172 26 -56 13 -83 -83 -181 l-71 -73 110 46 c61 26 192 81 293 122
l183 76 -292 293 -292 292 -141 60 c-78 33 -178 76 -223 96 l-82 35 35 -82z"/>
<path d="M3325 2614 c-72 -48 -133 -89 -137 -93 -4 -4 27 -41 70 -84 l77 -77
100 66 c55 37 101 68 102 68 3 3 -69 190 -76 198 -4 4 -65 -31 -136 -78z"/>
<path d="M2443 1707 c-160 -67 -290 -123 -288 -125 1 -2 153 9 337 23 l334 26
274 -56 c150 -30 278 -54 283 -52 5 1 -82 71 -194 155 l-202 152 -126 0 -126
-1 -292 -122z"/>
<path d="M895 730 l-76 -100 1501 0 1501 0 -76 100 -76 100 -1349 0 -1349 0
-76 -100z"/>
<path d="M386 324 c-138 -57 -254 -110 -258 -117 -12 -19 -9 -44 8 -61 14 -14
226 -16 2184 -16 1958 0 2170 2 2184 16 17 17 20 42 8 61 -4 7 -121 60 -260
118 l-252 105 -1682 0 -1683 -1 -249 -105z"/>
</g>
</svg>
