<?xml version="1.0" standalone="no"?>
<!DOCTYPE svg PUBLIC "-//W3C//DTD SVG 20010904//EN"
 "http://www.w3.org/TR/2001/REC-SVG-20010904/DTD/svg10.dtd">
<svg version="1.0" xmlns="http://www.w3.org/2000/svg"
 width="406.000000pt" height="596.000000pt" viewBox="0 0 406.000000 596.000000"
 preserveAspectRatio="xMidYMid meet">

<g transform="translate(0.000000,596.000000) scale(0.100000,-0.100000)"
fill="current" stroke="none">
<path d="M1498 5950 c-80 -14 -143 -39 -200 -80 -58 -41 -86 -74 -159 -186
-52 -79 -75 -99 -133 -115 -37 -10 -45 -7 -165 54 -188 97 -272 122 -401 122
-122 0 -159 -14 -227 -87 -60 -67 -78 -128 -78 -273 1 -98 6 -141 29 -230 135
-529 587 -1224 1087 -1672 103 -92 121 -113 139 -160 22 -58 26 -123 10 -153
-17 -31 -72 -44 -115 -25 -45 18 -66 19 -100 3 -29 -13 -55 -55 -55 -88 0 -70
84 -122 200 -122 161 -1 268 104 278 275 2 42 5 77 6 77 0 0 23 -7 50 -15 72
-22 660 -22 732 0 27 8 49 15 49 15 0 0 0 -30 1 -68 1 -86 31 -158 89 -211 57
-53 107 -73 180 -73 79 -1 138 16 178 51 26 24 32 36 32 71 0 35 -6 47 -33 71
-36 33 -66 36 -119 14 -110 -46 -164 58 -99 192 19 40 45 72 83 103 97 80 365
361 475 499 352 439 610 934 679 1301 7 36 12 110 12 165 -1 157 -46 251 -151
312 -69 41 -189 44 -309 10 -99 -28 -210 -77 -305 -132 -61 -36 -65 -37 -108
-26 -57 15 -79 36 -150 141 -67 99 -128 158 -200 195 -59 30 -176 55 -257 55
-47 0 -59 -4 -84 -29 -38 -38 -40 -97 -6 -136 20 -23 34 -28 103 -35 153 -16
210 -48 273 -156 19 -33 50 -78 69 -101 l33 -43 -807 0 -808 0 35 38 c20 20
48 59 64 86 67 118 135 164 258 172 91 7 124 20 142 55 18 34 19 60 3 94 -23
51 -95 66 -220 45z m-942 -421 c38 -12 117 -46 177 -75 l107 -54 0 -43 c0 -57
34 -332 60 -482 55 -316 153 -680 264 -980 l26 -70 -61 65 c-136 146 -309 376
-444 591 -76 121 -209 379 -255 494 -116 287 -137 515 -53 564 29 17 106 12
179 -10z m3117 12 c64 -25 75 -160 28 -343 -96 -369 -382 -860 -739 -1270 -47
-54 -87 -98 -88 -98 -2 0 8 30 22 67 164 435 298 1038 326 1468 l3 40 113 57
c156 78 268 104 335 79z m-1994 -695 c39 -21 51 -56 51 -154 0 -332 64 -710
149 -887 94 -194 208 -194 302 0 84 175 148 552 149 882 0 103 11 138 51 159
35 18 63 18 98 -1 40 -20 49 -52 55 -206 14 -323 91 -669 190 -855 l37 -69
-68 -62 c-37 -35 -71 -63 -75 -63 -20 0 -125 200 -154 293 l-18 57 -36 -102
c-64 -183 -136 -285 -242 -343 -47 -27 -63 -30 -138 -30 -75 0 -91 3 -138 30
-107 58 -198 193 -252 368 l-24 77 -27 -75 c-30 -81 -115 -250 -136 -266 -15
-13 -48 9 -110 73 l-43 44 36 67 c100 188 175 527 189 852 4 77 11 153 17 168
19 50 83 70 137 43z"/>
<path d="M1830 2960 l0 -100 200 0 200 0 0 100 0 100 -200 0 -200 0 0 -100z"/>
<path d="M1820 2636 c0 -49 -21 -286 -35 -401 -48 -376 -157 -725 -289 -922
l-35 -53 569 0 569 0 -35 52 c-171 256 -282 691 -320 1246 l-7 102 -208 0
-209 0 0 -24z"/>
<path d="M930 919 c-173 -78 -318 -144 -322 -147 -4 -4 106 -49 243 -100 138
-52 252 -92 253 -90 5 7 370 434 389 456 l20 22 -134 -1 -134 0 -315 -140z"/>
<path d="M1563 812 l-211 -247 339 -3 c186 -1 492 -1 678 0 l339 3 -211 247
-212 248 -255 0 -255 0 -212 -248z"/>
<path d="M2567 1038 c18 -22 383 -449 389 -456 1 -2 116 39 255 91 138 52 248
97 242 100 -5 3 -152 69 -327 146 l-318 141 -131 0 -130 0 20 -22z"/>
<path d="M430 537 c0 -65 3 -80 23 -101 15 -17 103 -55 293 -125 149 -56 274
-101 278 -101 4 0 5 41 4 92 l-3 91 -275 104 c-151 57 -285 106 -297 109 -22
6 -23 4 -23 -69z"/>
<path d="M3320 501 l-285 -108 -3 -91 c-1 -51 0 -92 4 -92 4 0 129 45 278 101
190 70 278 108 294 125 19 21 22 36 22 100 0 53 -4 74 -12 73 -7 0 -141 -49
-298 -108z"/>
<path d="M1230 260 l0 -100 800 0 800 0 0 100 0 100 -800 0 -800 0 0 -100z"/>
</g>
</svg>
